<svg width="104" height="104" viewBox="0 0 104 104" fill="none" xmlns="http://www.w3.org/2000/svg">
<path d="M30.3333 58.9335C30.3333 56.5066 30.3333 55.2931 30.8056 54.3662C31.2211 53.5508 31.884 52.8879 32.6994 52.4724C33.6263 52.0001 34.8398 52.0001 37.2667 52.0001H40.7333C43.1602 52.0001 44.3737 52.0001 45.3006 52.4724C46.116 52.8879 46.7789 53.5508 47.1944 54.3662C47.6667 55.2931 47.6667 56.5066 47.6667 58.9335V62.4001C47.6667 64.827 47.6667 66.0405 47.1944 66.9674C46.7789 67.7828 46.116 68.4457 45.3006 68.8612C44.3737 69.3335 43.1602 69.3335 40.7333 69.3335H37.2667C34.8398 69.3335 33.6263 69.3335 32.6994 68.8612C31.884 68.4457 31.2211 67.7828 30.8056 66.9674C30.3333 66.0405 30.3333 64.827 30.3333 62.4001V58.9335Z" fill="white"/>
<path fill-rule="evenodd" clip-rule="evenodd" d="M78.952 90.9123C77.8658 91.001 76.6329 91.0006 75.6005 91.0002H28.3997C27.3673 91.0006 26.1344 91.001 25.0482 90.9123C23.7897 90.8095 21.9871 90.5456 20.0982 89.5832C17.6521 88.3368 15.6634 86.3481 14.417 83.902C13.4546 82.0131 13.1908 80.2105 13.0879 78.952C12.9992 77.8659 12.9997 76.633 13.0001 75.6006L13 28.0002C12.9998 27.1409 12.9994 26.1141 13.0614 25.2058C13.1327 24.1602 13.3144 22.6554 13.9896 21.0252C15.3091 17.8398 17.8398 15.3091 21.0252 13.9896C22.6554 13.3144 24.1602 13.1327 25.2058 13.0614C26.1141 12.9994 27.1409 12.9998 28.0002 13H75.9999C76.8593 12.9998 77.8861 12.9994 78.7944 13.0614C79.8399 13.1327 81.3448 13.3144 82.975 13.9896C83.7539 14.3123 84.4936 14.7074 85.1861 15.1667C87.045 16.3998 88.5629 18.0958 89.5832 20.0982C89.7372 20.4004 89.8798 20.7096 90.0105 21.0252C90.6858 22.6554 90.8674 24.1602 90.9387 25.2058C91.0003 26.1076 91.0004 27.1263 91.0001 27.9819L91.0002 75.6005C91.0006 76.6329 91.001 77.8658 90.9123 78.952C90.8095 80.2105 90.5456 82.0131 89.5832 83.902C88.3368 86.3481 86.3481 88.3368 83.902 89.5832C82.0131 90.5456 80.2105 90.8095 78.952 90.9123ZM21.6668 75.4001V42.5875C23.0467 43.0654 24.299 43.2102 25.2058 43.2721C26.114 43.334 27.1409 43.3337 28.0002 43.3334H76.0001C76.8594 43.3337 77.8862 43.334 78.7944 43.2721C79.7012 43.2102 80.9535 43.0654 82.3334 42.5875V75.4001C82.3334 77.827 82.3334 79.0404 81.8611 79.9674C81.4457 80.7828 80.7828 81.4457 79.9674 81.8611C79.0404 82.3334 77.827 82.3334 75.4001 82.3334H73.6251C73.6667 81.6525 73.6667 80.813 73.6667 79.7335V58.9335C73.6667 56.5066 73.6667 55.2931 73.1944 54.3662C72.7789 53.5508 72.116 52.8879 71.3006 52.4724C70.3737 52.0001 69.1602 52.0001 66.7333 52.0001H63.2667C60.8398 52.0001 59.6263 52.0001 58.6994 52.4724C57.884 52.8879 57.2211 53.5508 56.8056 54.3662C56.3333 55.2931 56.3333 56.5066 56.3333 58.9335V79.7335C56.3333 80.813 56.3333 81.6525 56.3749 82.3334H28.6001C26.1732 82.3334 24.9598 82.3334 24.0328 81.8611C23.2174 81.4457 22.5545 80.7828 22.1391 79.9674C21.6668 79.0404 21.6668 77.827 21.6668 75.4001ZM21.9966 31.9917C21.6827 31.2338 21.6675 30.2828 21.6668 28.4523C21.667 26.1235 21.6765 24.9407 22.1391 24.0328C22.5545 23.2174 23.2174 22.5545 24.0328 22.1391C24.9598 21.6668 26.1732 21.6668 28.6001 21.6668H75.4001C77.827 21.6668 79.0404 21.6668 79.9674 22.1391C80.7828 22.5545 81.4457 23.2174 81.8611 24.0328C82.3133 24.9203 82.3326 26.0704 82.3334 28.2967C82.3333 30.2295 82.3263 31.2126 82.0036 31.9917C81.5637 33.0535 80.7202 33.8971 79.6584 34.3369C78.862 34.6667 77.8525 34.6667 75.8334 34.6667H28.1667C26.1477 34.6667 25.1381 34.6667 24.3418 34.3369C23.28 33.8971 22.4364 33.0535 21.9966 31.9917Z" fill="white"/>
</svg>
