<svg width="104" height="104" viewBox="0 0 104 104" fill="none" xmlns="http://www.w3.org/2000/svg">
<path fill-rule="evenodd" clip-rule="evenodd" d="M73.6666 30.3346C73.6666 42.3008 63.9661 52.0013 51.9999 52.0013C40.0337 52.0013 30.3332 42.3008 30.3332 30.3346C30.3332 18.3685 40.0337 8.66797 51.9999 8.66797C63.9661 8.66797 73.6666 18.3685 73.6666 30.3346ZM51.9999 43.3346C59.1796 43.3346 64.9999 37.5143 64.9999 30.3346C64.9999 23.1549 59.1796 17.3346 51.9999 17.3346C44.8202 17.3346 38.9999 23.1549 38.9999 30.3346C38.9999 37.5143 44.8202 43.3346 51.9999 43.3346Z" fill="white"/>
<path fill-rule="evenodd" clip-rule="evenodd" d="M86.6666 82.3346C86.6666 87.1211 82.7864 91.0013 77.9999 91.0013H25.9999C21.2134 91.0013 17.3333 87.1211 17.3333 82.3346C17.3333 77.4093 19.41 72.3434 22.3166 68.468C27.5393 61.5043 36.8853 56.3346 51.9999 56.3346C67.1145 56.3346 76.4605 61.5043 81.6832 68.468C84.5898 72.3434 86.6666 77.4093 86.6666 82.3346ZM74.7499 73.668C77.9999 78.0013 77.9999 82.3346 77.9999 82.3346H25.9999C25.9999 82.3346 25.9999 78.0013 29.2499 73.668C32.4999 69.3346 38.9999 65.0013 51.9999 65.0013C64.9999 65.0013 71.4999 69.3346 74.7499 73.668Z" fill="white"/>
</svg>
