<svg preserveAspectRatio="none" width="100%" height="100%" overflow="visible" style="display: block;" viewBox="0 0 14.7279 26.0418" fill="none" xmlns="http://www.w3.org/2000/svg">
<path id="Primary" fill-rule="evenodd" clip-rule="evenodd" d="M7.57382 0.022367C8.03473 0.121295 8.36396 0.528687 8.36396 1.0001V9.8996H13.7279C14.0673 9.8996 14.3834 10.0717 14.5677 10.3566C14.7519 10.6416 14.7791 11.0005 14.6398 11.31L8.27589 25.4521C8.08243 25.882 7.61502 26.1184 7.15411 26.0195C6.69319 25.9205 6.36396 25.5131 6.36396 25.0417V16.1422H1C0.660674 16.1422 0.344497 15.9702 0.160251 15.6852C-0.0239944 15.4003 -0.0511674 15.0413 0.0880812 14.7319L6.45204 0.589735C6.64549 0.159843 7.1129 -0.0765614 7.57382 0.022367ZM2.54659 14.1422H7.36396C7.91625 14.1422 8.36396 14.59 8.36396 15.1422V20.3827L12.1813 11.8996H7.36396C6.81168 11.8996 6.36396 11.4519 6.36396 10.8996V5.65918L2.54659 14.1422Z" fill="var(--fill-0, #191919)"/>
</svg>
