<svg preserveAspectRatio="none" width="100%" height="100%" overflow="visible" style="display: block;" viewBox="0 0 19.1191 18.2812" fill="none" xmlns="http://www.w3.org/2000/svg">
<path id="Primary" fill-rule="evenodd" clip-rule="evenodd" d="M9.55954 0C9.95248 0 10.309 0.230121 10.4708 0.588193L12.7436 5.61753L18.2291 6.22492C18.6197 6.26817 18.9487 6.53612 19.0701 6.90983C19.1915 7.28354 19.0828 7.69372 18.7923 7.95826L14.7114 11.674L15.8289 17.0787C15.9085 17.4635 15.7553 17.8592 15.4374 18.0902C15.1195 18.3211 14.6958 18.3445 14.3544 18.1499L9.55954 15.417L4.76466 18.1499C4.42328 18.3445 3.99959 18.3211 3.68169 18.0902C3.3638 17.8592 3.21063 17.4635 3.29019 17.0787L4.40765 11.674L0.326786 7.95826C0.0362426 7.69372 -0.0724446 7.28354 0.0489797 6.90983C0.170404 6.53612 0.499433 6.26817 0.889983 6.22492L6.3755 5.61753L8.64827 0.588193C8.81009 0.230121 9.16661 0 9.55954 0ZM9.55954 3.42832L7.96332 6.96054C7.81783 7.28249 7.51326 7.50378 7.16211 7.54266L3.30951 7.96924L6.17559 10.5789C6.43682 10.8167 6.55316 11.1748 6.48163 11.5207L5.69681 15.3166L9.06436 13.3972C9.37131 13.2223 9.74778 13.2223 10.0547 13.3972L13.4223 15.3166L12.6375 11.5207C12.5659 11.1748 12.6823 10.8167 12.9435 10.5789L15.8096 7.96924L11.957 7.54266C11.6058 7.50378 11.3013 7.28249 11.1558 6.96054L9.55954 3.42832Z" fill="var(--fill-0, #191919)"/>
</svg>
