<svg preserveAspectRatio="none" width="100%" height="100%" overflow="visible" style="display: block;" viewBox="0 0 21.0001 19" fill="none" xmlns="http://www.w3.org/2000/svg">
<g id="Primary">
<path fill-rule="evenodd" clip-rule="evenodd" d="M13 5C13 7.76142 10.7614 10 8 10C5.23858 10 3 7.76142 3 5C3 2.23858 5.23858 0 8 0C10.7614 0 13 2.23858 13 5ZM8 8C9.65686 8 11 6.65685 11 5C11 3.34315 9.65686 2 8 2C6.34315 2 5 3.34315 5 5C5 6.65685 6.34315 8 8 8Z" fill="var(--fill-0, #191919)"/>
<path d="M14.5 10C16.9853 10 19 7.98528 19 5.5C19 3.01472 16.9853 1 14.5 1C14.0682 1 13.6507 1.0608 13.2555 1.17431C13.66 1.72911 13.9789 2.35041 14.1925 3.01872C14.3922 3.64337 14.5 4.3091 14.5 5C14.5 6.04425 14.2537 7.03099 13.8161 7.90532C13.5041 8.52873 13.0948 9.09499 12.6082 9.58419C13.1833 9.85105 13.8242 10 14.5 10Z" fill="var(--fill-0, #191919)"/>
<path d="M19.0001 18C20.1047 18 21.0001 17.1046 21.0001 16C21.0001 14.9942 20.5458 13.9808 19.9115 13.2196C18.8048 11.8916 16.914 11 14.0001 11L13.9734 11C16.0614 12.3075 17.3776 14.5509 17.5001 17C17.5001 17.3475 17.4494 17.6831 17.3551 18H19.0001Z" fill="var(--fill-0, #191919)"/>
<path fill-rule="evenodd" clip-rule="evenodd" d="M16 17C16 18.1046 15.1046 19 14 19H2C0.895431 19 0 18.1046 0 17C0 15.8634 0.479246 14.6943 1.15 13.8C2.35525 12.193 4.51202 11 8 11C11.488 11 13.6448 12.193 14.85 13.8C15.5208 14.6943 16 15.8634 16 17ZM13.25 15C14 16 14 17 14 17H2C2 17 2 16 2.75 15C3.5 14 5 13 8 13C11 13 12.5 14 13.25 15Z" fill="var(--fill-0, #191919)"/>
</g>
</svg>
