<svg preserveAspectRatio="none" width="100%" height="100%" overflow="visible" style="display: block;" viewBox="0 0 20 20" fill="none" xmlns="http://www.w3.org/2000/svg">
<g id="Primary">
<path fill-rule="evenodd" clip-rule="evenodd" d="M10 11C11.2426 11 12.25 9.99264 12.25 8.75C12.25 7.50736 11.2426 6.5 10 6.5C8.75736 6.5 7.75 7.50736 7.75 8.75C7.75 9.99264 8.75736 11 10 11ZM10 13C12.3472 13 14.25 11.0972 14.25 8.75C14.25 6.40279 12.3472 4.5 10 4.5C7.65279 4.5 5.75 6.40279 5.75 8.75C5.75 11.0972 7.65279 13 10 13Z" fill="#191919"/>
<path fill-rule="evenodd" clip-rule="evenodd" d="M10 20C15.5228 20 20 15.5228 20 10C20 4.47715 15.5228 0 10 0C4.47715 0 0 4.47715 0 10C0 15.5228 4.47715 20 10 20ZM10 2C14.4183 2 18 5.58172 18 10C18 12.1937 17.1171 14.1811 15.6872 15.6264C14.411 14.6455 12.5656 14 10 14C7.4344 14 5.58905 14.6455 4.31282 15.6264C2.88294 14.1811 2 12.1937 2 10C2 5.58172 5.58172 2 10 2ZM14.0273 16.9139C13.1418 16.3839 11.8588 16 10 16C8.14116 16 6.8582 16.3839 5.97271 16.9139C7.15555 17.6044 8.53157 18 10 18C11.4684 18 12.8445 17.6044 14.0273 16.9139Z" fill="#191919"/>
</g>
</svg>
