<svg preserveAspectRatio="none" width="100%" height="100%" overflow="visible" style="display: block;" viewBox="0 0 20 13" fill="none" xmlns="http://www.w3.org/2000/svg">
<path id="Primary" d="M11 0C10.4477 0 10 0.447715 10 1C10 1.55228 10.4477 2 11 2H16.5858L10.5 8.08579L8.41421 6C7.63317 5.21895 6.36684 5.21895 5.58579 6L0.292893 11.2929C-0.0976311 11.6834 -0.0976311 12.3166 0.292893 12.7071C0.683418 13.0976 1.31658 13.0976 1.70711 12.7071L7 7.41421L9.08579 9.5C9.86684 10.2811 11.1332 10.281 11.9142 9.5L18 3.41421V9C18 9.55229 18.4477 10 19 10C19.5523 10 20 9.55229 20 9V1.42105C20 0.636228 19.3638 0 18.5789 0H11Z" fill="var(--fill-0, #191919)"/>
</svg>
