<svg preserveAspectRatio="none" width="100%" height="100%" overflow="visible" style="display: block;" viewBox="0 0 18 18" fill="none" xmlns="http://www.w3.org/2000/svg">
<g id="Primary">
<path fill-rule="evenodd" clip-rule="evenodd" d="M5.20001 1.02561e-05H12.8C12.8213 1.02561e-05 12.8426 7.63348e-06 12.8638 5.01088e-06C13.3686 -5.48322e-05 13.8602 -0.000113722 14.2765 0.0339009C14.7337 0.0712544 15.2731 0.159389 15.816 0.435984C16.5686 0.819478 17.1805 1.4314 17.564 2.18405C17.8406 2.7269 17.9288 3.26636 17.9661 3.72355C18.0001 4.13988 18.0001 4.63147 18 5.13625V12.8638C18.0001 13.3685 18.0001 13.8601 17.9661 14.2765C17.9288 14.7337 17.8406 15.2731 17.564 15.816C17.1805 16.5686 16.5686 17.1805 15.816 17.564C15.2731 17.8406 14.7337 17.9288 14.2765 17.9661C13.8601 18.0001 13.3685 18.0001 12.8638 18H5.13625C4.63147 18.0001 4.13988 18.0001 3.72355 17.9661C3.26636 17.9288 2.7269 17.8406 2.18405 17.564C1.4314 17.1805 0.819478 16.5686 0.435984 15.816C0.159389 15.2731 0.0712544 14.7337 0.0339009 14.2765C-0.000113722 13.8602 -5.48322e-05 13.3686 5.01088e-06 12.8638C7.63348e-06 12.8426 1.02561e-05 12.8213 1.02561e-05 12.8V5.20001C1.02561e-05 5.17873 7.63348e-06 5.15746 5.01088e-06 5.13621C-5.48322e-05 4.63145 -0.000113722 4.13987 0.0339009 3.72355C0.0712544 3.26636 0.159389 2.7269 0.435984 2.18405C0.819478 1.4314 1.4314 0.819478 2.18405 0.435984C2.7269 0.159389 3.26636 0.0712544 3.72355 0.0339009C4.13987 -0.000113722 4.63145 -5.48322e-05 5.13622 5.01088e-06C5.15746 7.63348e-06 5.17873 1.02561e-05 5.20001 1.02561e-05ZM2.218 3.09203C2.00001 3.51985 2.00001 4.07991 2.00001 5.20001V12.8C2.00001 13.9201 2.00001 14.4802 2.218 14.908C2.40974 15.2843 2.71571 15.5903 3.09203 15.782C3.51985 16 4.07991 16 5.20001 16H12.8C13.9201 16 14.4802 16 14.908 15.782C15.2843 15.5903 15.5903 15.2843 15.782 14.908C16 14.4802 16 13.9201 16 12.8V5.20001C16 4.07991 16 3.51985 15.782 3.09203C15.5903 2.71571 15.2843 2.40974 14.908 2.218C14.4802 2.00001 13.9201 2.00001 12.8 2.00001H5.20001C4.07991 2.00001 3.51985 2.00001 3.09203 2.218C2.71571 2.40974 2.40974 2.71571 2.218 3.09203Z" fill="#191919"/>
<path d="M4.00001 8.00001C4.00001 7.44773 4.44773 7.00001 5.00001 7.00001C5.5523 7.00001 6.00001 7.44773 6.00001 8.00001V13C6.00001 13.5523 5.5523 14 5.00001 14C4.44773 14 4.00001 13.5523 4.00001 13V8.00001Z" fill="var(--fill-0, #191919)"/>
<path d="M8.00001 5.00001C8.00001 4.44773 8.44773 4.00001 9.00001 4.00001C9.5523 4.00001 10 4.44773 10 5.00001V13C10 13.5523 9.5523 14 9.00001 14C8.44773 14 8.00001 13.5523 8.00001 13V5.00001Z" fill="var(--fill-0, #191919)"/>
<path d="M12 11C12 10.4477 12.4477 10 13 10C13.5523 10 14 10.4477 14 11V13C14 13.5523 13.5523 14 13 14C12.4477 14 12 13.5523 12 13V11Z" fill="var(--fill-0, #191919)"/>
</g>
</svg>
