<svg width="100" height="100" viewBox="0 0 100 100" fill="none" xmlns="http://www.w3.org/2000/svg">
<path fill-rule="evenodd" clip-rule="evenodd" d="M72.9167 79.168C76.3684 79.168 79.1667 76.3698 79.1667 72.918C79.1667 69.4662 76.3684 66.668 72.9167 66.668C69.4649 66.668 66.6667 69.4662 66.6667 72.918C66.6667 76.3698 69.4649 79.168 72.9167 79.168ZM72.9167 87.5013C80.9708 87.5013 87.5 80.9721 87.5 72.918C87.5 64.8638 80.9708 58.3346 72.9167 58.3346C64.8625 58.3346 58.3333 64.8638 58.3333 72.918C58.3333 80.9721 64.8625 87.5013 72.9167 87.5013Z" fill="white"/>
<path d="M75 20.8346C75 25.437 71.269 29.168 66.6667 29.168C62.0643 29.168 58.3333 25.437 58.3333 20.8346C58.3333 16.2323 62.0643 12.5013 66.6667 12.5013C71.269 12.5013 75 16.2323 75 20.8346Z" fill="white"/>
<path fill-rule="evenodd" clip-rule="evenodd" d="M27.0833 79.168C30.5351 79.168 33.3333 76.3698 33.3333 72.918C33.3333 69.4662 30.5351 66.668 27.0833 66.668C23.6316 66.668 20.8333 69.4662 20.8333 72.918C20.8333 76.3698 23.6316 79.168 27.0833 79.168ZM27.0833 87.5013C35.1375 87.5013 41.6667 80.9721 41.6667 72.918C41.6667 64.8638 35.1375 58.3346 27.0833 58.3346C19.0292 58.3346 12.5 64.8638 12.5 72.918C12.5 80.9721 19.0292 87.5013 27.0833 87.5013Z" fill="white"/>
<path fill-rule="evenodd" clip-rule="evenodd" d="M51.2204 30.3884C52.8476 28.7612 55.4858 28.7612 57.1129 30.3884L73.7796 47.055C75.4068 48.6822 75.4068 51.3204 73.7796 52.9476C72.1524 54.5748 69.5142 54.5748 67.887 52.9476L54.1667 39.2272L44.3037 49.0902L54.1506 54.717C55.611 55.5515 56.4265 57.1824 56.2178 58.8515L54.1345 75.5181C53.8491 77.8015 51.7666 79.4212 49.4832 79.1358C47.1998 78.8504 45.5801 76.7679 45.8655 74.4845L47.6043 60.5742L35.4328 53.619C34.3052 52.9747 33.5426 51.8415 33.3702 50.5544C33.1978 49.2672 33.6354 47.9733 34.5537 47.055L51.2204 30.3884Z" fill="white"/>
<path fill-rule="evenodd" clip-rule="evenodd" d="M45.4759 17.0254C48.7303 20.2798 48.7303 25.5562 45.4759 28.8105L32.9759 41.3105C29.7215 44.5649 24.4451 44.5649 21.1908 41.3105L17.0241 37.1439C13.7697 33.8895 13.7697 28.6131 17.0241 25.3587L29.5241 12.8587C32.7785 9.60438 38.0549 9.60438 41.3092 12.8587L45.4759 17.0254ZM27.0833 35.418L39.5833 22.918L35.4167 18.7513L22.9167 31.2513L27.0833 35.418Z" fill="white"/>
</svg>
